HIERARCHY
ROOT Hips
{
	OFFSET 0.00000 0.00000 0.00000
	CHANNELS 6 Xposition Yposition Zposition Zrotation Yrotation Xrotation 
	JOINT LHipJoint
	{
		OFFSET 0 0 0
		CHANNELS 3 Zrotation Yrotation Xrotation
		JOINT LeftUpLeg
		{
			OFFSET 1.28858 -1.83292 1.03970
			CHANNELS 3 Zrotation Yrotation Xrotation
			JOINT LeftLeg
			{
				OFFSET 2.47846 -6.80952 0.00000
				CHANNELS 3 Zrotation Yrotation Xrotation
				JOINT LeftFoot
				{
					OFFSET 2.75274 -7.56311 0.00000
					CHANNELS 3 Zrotation Yrotation Xrotation
					JOINT LeftToeBase
					{
						OFFSET 0.12848 -0.35301 1.68223
						CHANNELS 3 Zrotation Yrotation Xrotation
						End Site
						{
							OFFSET 0.00000 -0.00000 0.87311
						}
					}
				}
			}
		}
	}
	JOINT RHipJoint
	{
		OFFSET 0 0 0
		CHANNELS 3 Zrotation Yrotation Xrotation
		JOINT RightUpLeg
		{
			OFFSET -1.31183 -1.83292 1.03970
			CHANNELS 3 Zrotation Yrotation Xrotation
			JOINT RightLeg
			{
				OFFSET -2.44740 -6.72417 0.00000
				CHANNELS 3 Zrotation Yrotation Xrotation
				JOINT RightFoot
				{
					OFFSET -2.67343 -7.34519 0.00000
					CHANNELS 3 Zrotation Yrotation Xrotation
					JOINT RightToeBase
					{
						OFFSET -0.16914 -0.46471 1.77626
						CHANNELS 3 Zrotation Yrotation Xrotation
						End Site
						{
							OFFSET -0.00000 -0.00000 0.92777
						}
					}
				}
			}
		}
	}
	JOINT LowerBack
	{
		OFFSET 0 0 0
		CHANNELS 3 Zrotation Yrotation Xrotation
		JOINT Spine
		{
			OFFSET 0.01249 2.14252 0.03842
			CHANNELS 3 Zrotation Yrotation Xrotation
			JOINT Spine1
			{
				OFFSET -0.02957 2.14199 -0.03751
				CHANNELS 3 Zrotation Yrotation Xrotation
				JOINT Neck
				{
					OFFSET 0 0 0
					CHANNELS 3 Zrotation Yrotation Xrotation
					JOINT Neck1
					{
						OFFSET -0.01678 1.65709 -0.05476
						CHANNELS 3 Zrotation Yrotation Xrotation
						JOINT Head
						{
							OFFSET 0.07912 1.58331 -0.11843
							CHANNELS 3 Zrotation Yrotation Xrotation
							End Site
							{
								OFFSET 0.03298 1.73940 -0.04271
							}
						}
					}
				}
				JOINT LeftShoulder
				{
					OFFSET 0 0 0
					CHANNELS 3 Zrotation Yrotation Xrotation
					JOINT LeftArm
					{
						OFFSET 3.39556 1.16496 0.08673
						CHANNELS 3 Zrotation Yrotation Xrotation
						JOINT LeftForeArm
						{
							OFFSET 5.23910 -0.00000 -0.00000
							CHANNELS 3 Zrotation Yrotation Xrotation
							JOINT LeftHand
							{
								OFFSET 3.31467 -0.00000 0.00000
								CHANNELS 3 Zrotation Yrotation Xrotation
								JOINT LeftFingerBase
								{
									OFFSET 0 0 0
									CHANNELS 3 Zrotation Yrotation Xrotation
									JOINT LeftHandIndex1
									{
										OFFSET 0.96590 -0.00000 0.00000
										CHANNELS 3 Zrotation Yrotation Xrotation
										End Site
										{
											OFFSET 0.77873 -0.00000 0.00000
										}
									}
								}
								JOINT LThumb
								{
									OFFSET 0 0 0
									CHANNELS 3 Zrotation Yrotation Xrotation
									End Site
									{
										OFFSET 0.79062 -0.00000 0.79062
									}
								}
							}
						}
					}
				}
				JOINT RightShoulder
				{
					OFFSET 0 0 0
					CHANNELS 3 Zrotation Yrotation Xrotation
					JOINT RightArm
					{
						OFFSET -3.27193 1.31331 0.33940
						CHANNELS 3 Zrotation Yrotation Xrotation
						JOINT RightForeArm
						{
							OFFSET -5.30252 -0.00000 0.00000
							CHANNELS 3 Zrotation Yrotation Xrotation
							JOINT RightHand
							{
								OFFSET -3.67875 -0.00000 0.00000
								CHANNELS 3 Zrotation Yrotation Xrotation
								JOINT RightFingerBase
								{
									OFFSET 0 0 0
									CHANNELS 3 Zrotation Yrotation Xrotation
									JOINT RightHandIndex1
									{
										OFFSET -0.59481 -0.00000 0.00000
										CHANNELS 3 Zrotation Yrotation Xrotation
										End Site
										{
											OFFSET -0.47955 -0.00000 0.00000
										}
									}
								}
								JOINT RThumb
								{
									OFFSET 0 0 0
									CHANNELS 3 Zrotation Yrotation Xrotation
									End Site
									{
										OFFSET -0.48687 -0.00000 0.48687
									}
								}
							}
						}
					}
				}
			}
		}
	}
}
MOTION
Frames: 6
Frame Time: .0083333
10.0944 17.1792 -26.0750 -183.7640 24.7459 177.0400 0.0000 0.0000 0.0000 -25.3744 4.0579 -21.3613 3.9253 12.0604 35.9459 -1.5455 -21.5088 11.0117 10.3056 17.5781 60.5049 0.0000 0.0000 0.0000 6.8898 -5.7575 -5.9896 -16.9675 -19.7781 81.1019 179.2892 5.1683 -15.0204 -5.4025 13.8232 -42.5337 -6.7247 1.4745 4.3989 -3.2091 1.7446 0.3890 0.3416 0.9927 -2.1597 -2.3305 4.3104 2.7088 10.1982 5.8794 3.6225 3.6481 3.1110 0.2709 0.0000 0.0000 0.0000 -55.9940 10.8097 6.6537 10.5537 -17.6009 -1.6384 -0.0000 0.0000 -5.4155 16.4442 -16.3821 -4.7586 -7.1250 0.0000 -0.0000 -7.5527 13.0474 5.7035 0.0000 0.0000 0.0000 78.0885 -29.9285 -4.3194 -11.5579 19.1384 -1.9549 0.0000 -0.0000 -4.4837 -16.1013 -47.2694 11.9714 7.1250 -0.0000 -0.0000 44.2311 -74.6193 -32.3359
10.1139 17.2439 -26.4011 -183.3130 25.1928 177.3300 0.0000 0.0000 0.0000 -25.1982 4.2662 -19.9152 3.8020 11.8922 35.3516 -1.5792 -21.6728 10.5595 10.3306 17.5916 60.5875 0.0000 0.0000 0.0000 9.0561 -2.6034 -7.8317 -16.6266 -19.7249 80.0933 179.3956 4.7806 -13.8421 -5.0831 13.4767 -41.1804 -6.0688 1.5176 4.2591 -3.0849 1.8097 0.1354 0.1013 1.0170 -2.3328 -2.2550 4.3142 2.5126 10.2630 5.8573 4.2279 3.6753 3.1308 0.5008 0.0000 0.0000 0.0000 -56.2031 10.5037 8.8142 11.7651 -19.4514 -2.0234 -0.0000 0.0000 -6.2208 8.7533 -11.9404 -1.8246 -7.1250 0.0000 -0.0000 -12.8280 18.0718 8.4300 0.0000 0.0000 0.0000 78.5518 -29.2687 -2.6016 -11.5668 19.1518 -1.9578 0.0000 -0.0000 -2.2895 -15.5323 -48.1054 11.6887 7.1250 -0.0000 -0.0000 47.2822 -74.9098 -35.0418
10.1259 17.3637 -26.7288 -183.6810 25.2535 176.9440 0.0000 0.0000 0.0000 -26.0595 4.0334 -17.5925 3.5273 11.5033 33.9966 -1.3830 -20.3095 9.1047 10.2545 17.5505 60.3358 0.0000 0.0000 0.0000 9.9206 -0.1792 -9.0341 -16.0019 -19.6124 78.2375 179.3490 4.0026 -14.4109 -5.4792 13.9039 -42.8539 -6.2786 1.3957 4.3085 -2.9513 1.6226 0.0466 0.3646 0.9277 -2.4536 -2.1928 4.5499 2.3292 9.7950 6.1077 5.4562 3.5338 3.2944 0.9270 0.0000 0.0000 0.0000 -57.1177 10.1788 11.9490 13.1576 -21.5177 -2.5108 -0.0000 0.0000 -8.7379 8.6528 -12.2305 -1.8465 -7.1250 0.0000 -0.0000 -12.8826 17.7914 8.5496 0.0000 0.0000 0.0000 78.6074 -28.3726 -1.6054 -11.4976 19.0469 -1.9352 0.0000 0.0000 1.0773 -12.5789 -46.7380 9.2297 7.1250 -0.0000 -0.0000 46.0766 -72.9796 -32.3384
10.1345 17.5544 -27.0498 -183.9570 24.8951 176.5750 0.0000 0.0000 0.0000 -26.8189 3.6660 -15.3067 3.2560 11.0984 32.6126 -0.9984 -17.4219 8.1547 10.2039 17.5229 60.1678 0.0000 0.0000 0.0000 10.6304 1.6366 -10.0088 -15.1578 -19.4283 75.7116 179.2889 5.2350 -15.0235 -5.6635 14.0941 -43.6157 -6.4987 1.1065 4.3038 -2.6672 1.2187 0.0527 0.8077 0.7241 -2.4345 -2.5403 4.8345 2.7092 9.5521 6.4621 6.0155 3.5117 3.4689 1.0141 0.0000 -0.0000 0.0000 -58.5283 9.9713 15.5889 14.9363 -24.0573 -3.1999 -0.0000 0.0000 -11.8664 8.1935 -12.8965 -1.8406 -7.1250 0.0000 -0.0000 -13.1640 17.1588 8.9349 0.0000 -0.0000 0.0000 78.5399 -27.5315 2.2250 -12.2344 20.1552 -2.1824 0.0000 -0.0000 -0.0989 -12.3402 -46.7194 9.0492 7.1250 -0.0000 -0.0000 46.2508 -72.8817 -32.3848
10.1426 17.8046 -27.3647 -183.7760 24.2105 176.4620 0.0000 0.0000 0.0000 -26.9176 3.5692 -13.7290 3.1111 10.8728 31.8521 -0.5487 -13.3658 8.3287 10.2345 17.5396 60.2691 0.0000 0.0000 0.0000 11.7256 3.1163 -10.9339 -14.1399 -19.1559 72.6312 179.3554 5.5427 -14.3021 -5.2623 13.6733 -41.9440 -6.3243 0.7078 3.9773 -2.2531 0.7200 0.2325 1.1783 0.4530 -2.0375 -2.7980 5.0946 3.5053 9.1350 6.8106 5.8399 3.3767 3.6048 0.8020 0.0000 -0.0000 0.0000 -60.2901 9.7805 18.9262 17.1200 -27.0157 -4.1417 -0.0000 0.0000 -13.8492 8.8383 -13.8333 -2.1291 -7.1250 0.0000 -0.0000 -12.6853 16.2027 8.8641 0.0000 -0.0000 0.0000 78.5613 -26.4603 5.8106 -13.2593 21.6660 -2.5482 0.0000 -0.0000 -1.3014 -8.6597 -45.4087 6.1901 7.1250 -0.0000 -0.0000 46.5145 -70.7553 -30.6098
10.1551 18.0990 -27.6654 -183.4230 23.3448 176.4690 0.0000 0.0000 0.0000 -26.5150 3.8927 -13.1218 3.1267 10.8974 31.9348 -0.1057 -8.2373 9.2822 10.3697 17.6126 60.7169 0.0000 0.0000 0.0000 12.9773 4.4546 -11.9302 -13.0533 -18.8013 69.2908 179.4361 5.8516 -13.4013 -5.3175 13.7326 -42.1769 -6.0516 0.3719 3.5626 -1.8326 0.3184 0.4802 1.4880 0.2259 -1.5233 -2.8723 5.2006 3.9455 8.5218 6.9475 5.7145 3.1603 3.6446 0.6975 0.0000 0.0000 0.0000 -62.0687 9.3013 22.4620 19.6995 -30.2786 -5.3790 -0.0000 0.0000 -14.5403 6.8204 -13.9624 -1.6530 -7.1250 0.0000 -0.0000 -14.0403 16.1846 9.8746 0.0000 0.0000 0.0000 78.9376 -25.3118 8.5040 -14.3324 23.2079 -2.9578 0.0000 -0.0000 -2.7359 -2.6855 -38.3148 1.6657 7.1250 -0.0000 -0.0000 39.9761 -63.8886 -19.8282
